HIERARCHY
ROOT Hips
{
  OFFSET 13.6774 106.653 -34.4427
  CHANNELS 6 Xposition Yposition Zposition Zrotation Xrotation Yrotation
  JOINT ToSpine
  {
    OFFSET -2.69724 7.43032 -0.144315
    CHANNELS 3 Zrotation Xrotation Yrotation
    JOINT Spine
    {
      OFFSET -0.0310711 10.7595 1.96963
      CHANNELS 3 Zrotation Xrotation Yrotation
      JOINT Spine1
      {
        OFFSET 19.9056 3.91189 0.764692
        CHANNELS 3 Zrotation Xrotation Yrotation
        JOINT Neck
        {
          OFFSET 25.9749 7.03908 -0.130764
          CHANNELS 3 Zrotation Xrotation Yrotation
          JOINT Head
          {
            OFFSET 9.52751 0.295786 -0.907742
            CHANNELS 3 Zrotation Xrotation Yrotation
            End Site
            {
              OFFSET 16.4037 0.713936 2.7358
            }
          }
        }
        JOINT LeftShoulder
        {
          OFFSET 17.7449 4.33886 11.7777
          CHANNELS 3 Zrotation Xrotation Yrotation
          JOINT LeftArm
          {
            OFFSET 0.911315 1.27913 9.80584
            CHANNELS 3 Zrotation Xrotation Yrotation
            JOINT LeftForeArm
            {
              OFFSET 28.6126 1.18197 -3.53199
              CHANNELS 3 Zrotation Xrotation Yrotation
              JOINT LeftHand
              {
                OFFSET 27.5088 0.0218783 0.327423
                CHANNELS 3 Zrotation Xrotation Yrotation
                End Site
                {
                  OFFSET 18.6038 -0.000155887 0.382096
                }
              }
            }
          }
        }
        JOINT RightShoulder
        {
          OFFSET 17.1009 2.89543 -12.2328
          CHANNELS 3 Zrotation Xrotation Yrotation
          JOINT RightArm
          {
            OFFSET 1.4228 0.178766 -10.211
            CHANNELS 3 Zrotation Xrotation Yrotation
            JOINT RightForeArm
            {
              OFFSET 28.733 1.87905 2.64907
              CHANNELS 3 Zrotation Xrotation Yrotation
              JOINT RightHand
              {
                OFFSET 27.4588 0.290562 -0.101845
                CHANNELS 3 Zrotation Xrotation Yrotation
                End Site
                {
                  OFFSET 17.8396 -0.255518 -0.000602873
                }
              }
            }
          }
        }
      }
    }
  }
  JOINT LeftUpLeg
  {
    OFFSET -5.61296 -2.22332 -10.2353
    CHANNELS 3 Zrotation Xrotation Yrotation
    JOINT LeftLeg
    {
      OFFSET 2.56703 -44.7417 -7.93097
      CHANNELS 3 Zrotation Xrotation Yrotation
      JOINT LeftFoot
      {
        OFFSET 3.16933 -46.5642 -3.96578
        CHANNELS 3 Zrotation Xrotation Yrotation
        JOINT LeftToeBase
        {
          OFFSET 0.346054 -6.02161 12.8035
          CHANNELS 3 Zrotation Xrotation Yrotation
          End Site
          {
            OFFSET 0.134235 -1.35082 5.13018
          }
        }
      }
    }
  }
  JOINT RightUpLeg
  {
    OFFSET -5.7928 -1.72406 10.6446
    CHANNELS 3 Zrotation Xrotation Yrotation
    JOINT RightLeg
    {
      OFFSET -2.57161 -44.7178 -7.85259
      CHANNELS 3 Zrotation Xrotation Yrotation
      JOINT RightFoot
      {
        OFFSET -3.10148 -46.5936 -4.03391
        CHANNELS 3 Zrotation Xrotation Yrotation
        JOINT RightToeBase
        {
          OFFSET -0.0828122 -6.13587 12.8035
          CHANNELS 3 Zrotation Xrotation Yrotation
          End Site
          {
            OFFSET -0.131328 -1.35082 5.13018
          }
        }
      }
    }
  }
}
MOTION
Frames: 7
Frame Time: 0.03333333333333333
0.0000 93.1000 0.0000 75.7105 4.6192 0.0412 -71.1400 0.0297 88.0633 106.7059 72.6838 -17.2789 0.3718 24.9307 -2.9847 -123.2580 28.4188 162.7068 169.7523 69.2294 -136.1162 0.7996 -9.3472 -19.2291 -76.0741 32.7264 -141.3152 -0.1590 -0.9979 -112.9947 0.8947 0.0292 6.5339 -0.9194 10.1711 19.9335 -68.1005 -48.4407 110.9976 -10.6288 -5.3086 115.7139 -1.0310 -0.5336 -0.2208 -45.7775 17.1097 87.6392 -2.5559 29.4752 -19.0082 -9.3592 0.9858 0.9705 3.8626 -11.1643 7.1080 -39.6270 -20.4057 71.9056 3.7934 58.8142 0.2259 -4.2826 -27.9104 1.4747 1.0504 -22.8851 -23.3646 
0.0000 93.1000 0.0000 75.7897 4.2037 -0.4780 -71.1407 0.0525 88.0451 107.2960 71.1614 -19.1134 -0.1018 23.2233 -2.9712 -121.1353 26.9735 165.4490 171.6514 68.2111 -136.3026 0.5446 -9.7510 -20.3741 -74.6500 32.8280 -140.2245 1.8384 -1.0249 -112.7901 0.9066 0.2350 6.4670 -0.5240 9.9449 15.0493 -76.1670 -49.3572 105.3921 -8.2804 -5.0604 118.9262 -1.3121 -0.3076 0.1241 -45.9222 17.1159 87.9117 -1.9675 29.1382 -19.7406 -8.3423 -1.1384 0.2907 4.5550 -12.5980 9.9686 -38.2657 -19.9130 73.5924 5.1806 60.6697 -1.0527 -4.4098 -28.2861 1.3721 0.8452 -22.9489 -24.7984 
0.0000 93.1000 0.0000 75.7626 3.1011 -0.1066 -71.1454 0.1310 88.0463 105.0427 70.2787 -16.6068 0.7259 21.7381 -2.1276 -119.9725 26.0058 164.1324 174.0810 68.1137 -136.9070 -0.0412 -11.0107 -21.9462 -72.6563 33.1903 -141.3800 3.0393 -1.9746 -112.0014 1.1941 0.6349 5.8432 -0.2013 8.8925 10.3302 -83.9412 -50.0018 100.8452 -6.0681 -3.7291 122.0411 -1.5737 0.1984 -0.0706 -46.2669 17.1416 88.1420 -1.5796 28.2000 -22.5872 -7.7241 -1.8152 -0.3208 5.9827 -15.2793 12.4713 -36.7859 -19.4024 74.5734 4.9441 61.0855 -1.1195 -4.5206 -28.2203 1.4203 0.9527 -22.9986 -24.5234 
0.0000 93.1000 0.0000 74.7582 1.4780 -1.4253 -71.1408 0.1086 88.0506 105.0846 70.0672 -16.1875 0.5029 20.5724 -1.8052 -118.8564 25.2967 161.6522 177.6888 68.1734 -141.5452 -0.0359 -12.4974 -22.8446 -70.3880 32.9575 -142.5228 4.1239 -2.5696 -110.6010 0.4772 0.5650 6.0654 -0.0477 7.7583 8.7894 -89.8833 -49.2161 98.1847 -2.6192 -1.8301 125.6505 -1.2818 0.0722 -0.3348 -46.2166 16.9013 89.9948 -0.8047 27.7226 -23.4268 -7.1632 -3.0182 -0.5271 6.9774 -16.5750 13.2415 -35.0428 -18.2875 75.4203 5.0434 60.4954 -0.9418 -4.7177 -27.2238 1.4335 1.1355 -23.9885 -25.8446 
0.0000 93.1000 0.0000 74.4718 -1.2453 -2.8475 -71.1319 -0.4241 88.1071 102.4865 69.5737 -15.5791 -0.6269 20.3299 -2.5201 -118.7501 25.0149 159.7620 178.3269 68.0899 -143.6001 2.8331 -12.8934 -23.8075 -68.6967 34.2446 -142.9581 5.6973 -2.7313 -109.7185 -0.6027 -2.2178 8.1149 0.1338 6.8786 7.3908 -93.9916 -50.0858 98.4132 0.9072 0.7383 127.8930 1.8290 -2.9707 1.5923 -46.4945 17.1406 91.3529 -2.0833 27.4518 -22.9457 -6.4400 -2.9846 2.0456 6.8301 -17.8009 13.5654 -33.4694 -16.9510 77.0994 3.6400 58.6378 -1.5274 -5.1691 -25.2858 -0.1066 0.8600 -23.1800 -25.2089 
0.0000 93.1000 0.0000 73.8334 -3.2137 -2.6762 -71.0488 0.1225 88.0431 99.2016 68.9122 -12.8766 0.7223 20.0919 -1.8462 -118.2265 24.7341 160.4605 -177.4551 68.4889 -145.8259 -0.1917 -13.9851 -23.2750 -67.5680 35.1745 -144.5057 7.2672 -3.1063 -108.8351 -0.0837 0.5365 5.8792 -0.0584 6.3808 6.8580 -95.5957 -51.4664 98.5744 2.8867 2.5499 129.6380 -0.4421 0.1818 0.3012 -47.7677 15.9622 90.4949 -2.0378 28.2787 -21.3575 -5.5438 -3.7350 -0.4352 5.6982 -15.7828 13.9740 -31.8968 -16.1023 80.9498 3.9034 56.8782 -1.2753 -5.8723 -24.6698 1.1678 0.5749 -25.2728 -25.8552 
0.0000 93.1000 0.0000 72.5501 -6.0331 -4.4845 -71.0513 0.0310 88.0570 97.4544 67.7998 -11.4998 0.6797 18.7308 -1.3340 -116.8577 25.3115 161.0033 -179.3327 69.2175 -143.0816 0.2673 -14.5065 -23.2379 -66.8062 35.7941 -145.4290 7.5521 -3.1136 -108.0196 -0.3136 0.0321 6.0665 -0.0832 6.7086 7.1993 -98.0755 -51.8331 98.6459 4.9388 5.1358 130.8978 0.0879 -0.3824 0.8194 -47.5863 16.3987 89.7822 -1.8537 28.6258 -18.0678 -4.3472 -1.9256 -0.0094 4.7675 -13.7578 11.8878 -31.1516 -14.3726 82.6665 2.6310 55.2929 -1.0061 -5.5685 -23.7211 0.9399 0.6674 -25.0181 -26.9685 
